USFL
nRows=213
nColumns=2
inDegrees=yes
endheader
time	tib_ant_r	
6.3871	 54.063443	
6.42036	 54.041572	
6.45363	 54.047434	
6.4869	 54.071016	
6.52016	 54.055367	
6.55343	 54.057568	
6.58669	 54.054498	
6.61996	 54.056518	
6.65323	 54.061430	
6.68649	 54.055429	
6.71976	 54.046056	
6.75302	 54.042364	
6.78629	 54.046374	
6.81956	 54.040696	
6.85282	 54.047003	
6.88609	 54.045527	
6.91935	 54.037319	
6.95262	 54.047908	
6.98589	 54.037047	
7.01915	 54.037314	
7.05242	 54.045047	
7.08569	 54.046453	
7.11895	 54.059412	
7.15222	 54.051843	
7.18548	 54.054766	
7.21875	 54.066768	
7.25202	 54.067199	
7.28528	 54.059893	
7.31855	 54.054814	
7.35181	 54.049779	
7.38508	 54.052674	
7.41835	 54.089085	
7.45161	 54.093593	
7.48488	 54.081373	
7.51815	 54.058933	
7.55141	 54.088248	
7.58468	 54.147886	
7.61794	 54.128323	
7.65121	 54.152407	
7.68448	 54.177228	
7.71774	 54.143553	
7.75101	 54.188355	
7.78427	 54.169240	
7.81754	 54.114493	
7.85081	 54.202891	
7.88407	 54.117737	
7.91734	 54.235086	
7.9506	 54.223470	
7.98387	 54.187446	
8.01714	 54.180466	
8.0504	 54.226445	
8.08367	 54.165150	
8.11694	 54.224432	
8.1502	 54.320339	
8.18347	 54.291753	
8.21673	 54.231493	
8.25	 54.109997	
8.28327	 53.829829	
8.31653	 53.689727	
8.3498	 53.606897	
8.38306	 53.277722	
8.41633	 52.851070	
8.4496	 52.660939	
8.48286	 52.500399	
8.51613	 52.256599	
8.5494	 51.712291	
8.58266	 51.577916	
8.61593	 51.432406	
8.64919	 51.120463	
8.68246	 50.916327	
8.71573	 50.794586	
8.74899	 49.844523	
8.78226	 49.631712	
8.81552	 49.445092	
8.84879	 48.983196	
8.88206	 48.786815	
8.91532	 48.616627	
8.94859	 45.241775	
8.98185	 44.836897	
9.01512	 44.835018	
9.04839	 44.688746	
9.08165	 44.387826	
9.11492	 44.257955	
9.14819	 44.233597	
9.18145	 44.100765	
9.21472	 43.996388	
9.24798	 43.748436	
9.28125	 43.569581	
9.31452	 43.399881	
9.34778	 43.436490	
9.38105	 43.278361	
9.41431	 43.191406	
9.44758	 43.176196	
9.48085	 43.043121	
9.51411	 42.928229	
9.54738	 42.888671	
9.58065	 42.908562	
9.61391	 42.978195	
9.64718	 43.024851	
9.68044	 43.002298	
9.71371	 42.920351	
9.74698	 42.770729	
9.78024	 42.690772	
9.81351	 42.671529	
9.84677	 42.405291	
9.88004	 42.113650	
9.91331	 42.134811	
9.94657	 41.877301	
9.97984	 41.663788	
10.0131	 41.477376	
10.0464	 41.224186	
10.0796	 41.121223	
10.1129	 40.973797	
10.1462	 40.829574	
10.1794	 40.849609	
10.2127	 40.822937	
10.246	 40.706177	
10.2792	 40.687288	
10.3125	 40.629946	
10.3458	 40.513437	
10.379	 40.493223	
10.4123	 40.485927	
10.4456	 40.481263	
10.4788	 40.485944	
10.5121	 40.505616	
10.5454	 40.506785	
10.5786	 40.542881	
10.6119	 40.503315	
10.6452	 40.428791	
10.6784	 40.485639	
10.7117	 40.567692	
10.745	 40.567928	
10.7782	 40.558728	
10.8115	 40.574467	
10.8448	 40.524432	
10.878	 40.493867	
10.9113	 40.477781	
10.9446	 40.502127	
10.9778	 40.419278	
11.0111	 40.412475	
11.0444	 40.358000	
11.0776	 40.277437	
11.1109	 40.313504	
11.1442	 40.284618	
11.1774	 40.264377	
11.2107	 40.266390	
11.244	 40.319351	
11.2772	 40.304204	
11.3105	 40.343777	
11.3437	 40.297563	
11.377	 40.290644	
11.4103	 40.250168	
11.4435	 40.232668	
11.4768	 40.259171	
11.5101	 40.281181	
11.5433	 40.287129	
11.5766	 40.287488	
11.6099	 40.258261	
11.6431	 40.241332	
11.6764	 40.302236	
11.7097	 40.354468	
11.7429	 40.322315	
11.7762	 40.381063	
11.8095	 40.356132	
11.8427	 40.388976	
11.876	 40.451277	
11.9093	 40.455330	
11.9425	 40.467475	
11.9758	 40.481446	
12.0091	 40.429877	
12.0423	 40.485871	
12.0756	 40.507648	
12.1089	 40.524595	
12.1421	 40.542457	
12.1754	 40.542987	
12.2087	 40.541580	
12.2419	 40.526923	
12.2752	 40.508824	
12.3085	 40.600831	
12.3417	 40.784930	
12.375	 40.819580	
12.4083	 41.053132	
12.4415	 41.520983	
12.4748	 41.608216	
12.5081	 41.844720	
12.5413	 41.996545	
12.5746	 42.316966	
12.6079	 42.496698	
12.6411	 42.651785	
12.6744	 42.863702	
12.7077	 43.378161	
12.7409	 43.472875	
12.7742	 43.572138	
12.8075	 43.938379	
12.8407	 44.202585	
12.874	 44.445669	
12.9073	 44.712718	
12.9405	 46.664304	
12.9738	 46.879162	
13.0071	 48.099211	
13.0403	 48.267975	
13.0736	 48.514481	
13.1069	 48.662395	
13.1401	 49.784761	
13.1734	 49.924558	
13.2067	 50.399151	
13.2399	 50.428701	
13.2732	 50.488045	
13.3065	 50.625269	
13.3397	 50.581047	
13.373	 50.635305	
13.4062	 50.785292	
13.4395	 51.240481	
